<svg width="74" height="70" viewBox="0 0 74 70" fill="none" xmlns="http://www.w3.org/2000/svg">
<path d="M-5.43498 7.11031C-5.24428 16.5079 -8.60814 17.6648 -16.8401 17.0898V22.385C-0.159742 23.4151 1.90363 17.0489 0.674904 1.00043H-5.43498V7.11031Z" stroke="#0E9CE9" stroke-opacity="0.3" stroke-width="2"/>
<path d="M-16.3917 28.6004C-6.62917 28.0939 -4.36392 31.4645 -5.39396 43.8751H0.715923C2.09393 27.2464 -1.98658 23.0203 -16.3917 22.6946L-16.3917 28.6004Z" stroke="#0E9CE9" stroke-opacity="0.3" stroke-width="2"/>
<path d="M-5.43498 50.0932C-5.24428 59.4908 -8.60814 60.6477 -16.8401 60.0727V65.3679C-0.159742 66.398 1.90363 60.0318 0.674904 43.9833H-5.43498V50.0932Z" stroke="#0E9CE9" stroke-opacity="0.3" stroke-width="2"/>
<path d="M18.3913 16.3824C8.62868 16.889 6.36343 13.5184 7.39347 1.10775H1.28359C-0.0944169 17.7365 3.98609 21.9625 18.3913 22.2883L18.3913 16.3824Z" stroke="#0E9CE9" stroke-opacity="0.3" stroke-width="2"/>
<path d="M18.5968 16.3813C18.7875 6.98372 15.4236 5.82676 7.19165 6.40179V1.10656C23.872 0.0764465 25.9354 6.4427 24.7066 22.4911H18.5968V16.3813Z" stroke="#0E9CE9" stroke-opacity="0.3" stroke-width="2"/>
<path d="M31.6078 16.3824C41.3703 16.889 43.6356 13.5184 42.6056 1.10775H48.7154C50.0934 17.7365 46.0129 21.9625 31.6078 22.2883L31.6078 16.3824Z" stroke="#0E9CE9" stroke-opacity="0.3" stroke-width="2"/>
<path d="M31.4023 16.3813C31.2116 6.98372 34.5754 5.82676 42.8074 6.40179V1.10656C26.127 0.0764465 24.0637 6.4427 25.2924 22.4911H31.4023V16.3813Z" stroke="#0E9CE9" stroke-opacity="0.3" stroke-width="2"/>
<path d="M18.3913 29.4149C8.62868 28.9084 6.36343 32.279 7.39347 44.6896H1.28359C-0.0944169 28.0609 3.98609 23.8349 18.3913 23.5091L18.3913 29.4149Z" stroke="#0E9CE9" stroke-opacity="0.3" stroke-width="2"/>
<path d="M18.5968 29.4161C18.7875 38.8137 15.4236 39.9706 7.19165 39.3956V44.6908C23.872 45.7209 25.9354 39.3547 24.7066 23.3062H18.5968V29.4161Z" stroke="#0E9CE9" stroke-opacity="0.3" stroke-width="2"/>
<path d="M31.6078 29.4149C41.3703 28.9084 43.6356 32.279 42.6056 44.6896H48.7154C50.0934 28.0609 46.0129 23.8349 31.6078 23.5091L31.6078 29.4149Z" stroke="#0E9CE9" stroke-opacity="0.3" stroke-width="2"/>
<path d="M31.4023 29.4161C31.2116 38.8137 34.5754 39.9706 42.8074 39.3956V44.6908C26.127 45.7209 24.0637 39.3547 25.2924 23.3062H31.4023V29.4161Z" stroke="#0E9CE9" stroke-opacity="0.3" stroke-width="2"/>
<path d="M18.3913 60.9947C8.62868 61.5012 6.36343 58.1306 7.39347 45.72H1.28359C-0.0944169 62.3488 3.98609 66.5748 18.3913 66.9005L18.3913 60.9947Z" stroke="#0E9CE9" stroke-opacity="0.3" stroke-width="2"/>
<path d="M18.5968 60.9939C18.7875 51.5964 15.4236 50.4394 7.19165 51.0145V45.7192C23.872 44.6891 25.9354 51.0554 24.7066 67.1038H18.5968V60.9939Z" stroke="#0E9CE9" stroke-opacity="0.3" stroke-width="2"/>
<path d="M31.6078 60.9947C41.3703 61.5012 43.6356 58.1306 42.6056 45.72H48.7154C50.0934 62.3487 46.0129 66.5748 31.6078 66.9005L31.6078 60.9947Z" stroke="#0E9CE9" stroke-opacity="0.3" stroke-width="2"/>
<path d="M31.4023 60.9939C31.2116 51.5964 34.5754 50.4394 42.8074 51.0145V45.7192C26.127 44.6891 24.0637 51.0554 25.2924 67.1038H31.4023V60.9939Z" stroke="#0E9CE9" stroke-opacity="0.3" stroke-width="2"/>
<path d="M66.3913 30.23C56.6287 29.7235 54.3634 33.0941 55.3935 45.5047H49.2836C47.9056 28.8759 51.9861 24.6499 66.3913 24.3242L66.3913 30.23Z" stroke="#0E9CE9" stroke-opacity="0.3" stroke-width="2"/>
<path d="M66.5975 30.2307C66.7882 39.6283 63.4243 40.7852 55.1924 40.2102V45.5054C71.8727 46.5356 73.9361 40.1693 72.7074 24.1208H66.5975V30.2307Z" stroke="#0E9CE9" stroke-opacity="0.3" stroke-width="2"/>
<path d="M55.64 51.7212C65.4026 51.2147 67.6678 54.5853 66.6378 66.9959H72.7477C74.1257 50.3672 70.0452 46.1411 55.64 45.8154L55.64 51.7212Z" stroke="#0E9CE9" stroke-opacity="0.3" stroke-width="2"/>
<path d="M55.4345 51.7224C55.2438 61.1199 58.6077 62.2769 66.8396 61.7019V66.9971C50.1593 68.0272 48.0959 61.661 49.3246 45.6125H55.4345V51.7224Z" stroke="#0E9CE9" stroke-opacity="0.3" stroke-width="2"/>
<path d="M1.43872 76.6783V89.5091H14.6768C26.777 86.2069 25.9038 79.036 25.8782 67.3098C9.39825 66.3146 4.75034 68.8374 1.43872 76.6783Z" fill="#BAE3FD" stroke="#0E9CE9" stroke-opacity="0.3"/>
<path d="M1.46265 76.6783V89.5091H-11.7754C-23.8757 86.2069 -23.0024 79.036 -22.9769 67.3098C-6.49688 66.3146 -1.84897 68.8374 1.46265 76.6783Z" fill="#BAE3FD" stroke="#0E9CE9" stroke-opacity="0.3"/>
</svg>
