<svg width="118" height="104" viewBox="0 0 118 104" fill="none" xmlns="http://www.w3.org/2000/svg">
<path d="M9.03123 2.5439C20.8961 1.9283 23.6491 6.02474 22.3973 21.1078H29.8228C31.4976 0.898291 26.5384 -4.23779 9.03123 -4.63367L9.03123 2.5439Z" stroke="#7AB4D9" stroke-width="2"/>
<path d="M8.78152 2.5448C8.54975 13.966 12.638 15.3721 22.6426 14.6732V21.1087C2.37033 22.3607 -0.137363 14.6235 1.35595 -4.88077H8.78152V2.5448Z" stroke="#7AB4D9" stroke-width="2"/>
<path d="M22.0977 28.6634C10.2328 28.0478 7.47981 32.1442 8.73165 47.2273H1.30608C-0.368659 27.0178 4.59054 21.8817 22.0977 21.4858L22.0977 28.6634Z" stroke="#7AB4D9" stroke-width="2"/>
<path d="M22.3469 28.6649C22.5787 40.0861 18.4904 41.4922 8.48584 40.7933V47.2288C28.7581 48.4808 31.2658 40.7436 29.7725 21.2393H22.3469V28.6649Z" stroke="#7AB4D9" stroke-width="2"/>
<path d="M51.3052 3.53329C39.4404 2.9177 36.6873 7.01413 37.9392 22.0972H30.5136C28.8389 1.88769 33.7981 -3.2484 51.3052 -3.64427L51.3052 3.53329Z" stroke="#7AB4D9" stroke-width="2"/>
<path d="M51.5544 3.53478C51.7862 14.956 47.698 16.3621 37.6934 15.6632V22.0987C57.9656 23.3506 60.4733 15.6135 58.98 -3.89079H51.5544V3.53478Z" stroke="#7AB4D9" stroke-width="2"/>
<path d="M67.3667 3.53329C79.2315 2.9177 81.9845 7.01413 80.7327 22.0972H88.1583C89.833 1.88769 84.8738 -3.2484 67.3667 -3.64427L67.3667 3.53329Z" stroke="#7AB4D9" stroke-width="2"/>
<path d="M67.1175 3.53478C66.8857 14.956 70.9739 16.3621 80.9785 15.6632V22.0987C60.7063 23.3506 58.1986 15.6135 59.6919 -3.89079H67.1175V3.53478Z" stroke="#7AB4D9" stroke-width="2"/>
<path d="M51.3052 41.9139C39.4404 42.5295 36.6873 38.4331 37.9392 23.35H30.5136C28.8389 43.5595 33.7981 48.6956 51.3052 49.0915L51.3052 41.9139Z" stroke="#7AB4D9" stroke-width="2"/>
<path d="M51.5544 41.913C51.7862 30.4918 47.698 29.0857 37.6934 29.7846V23.3491C57.9656 22.0971 60.4733 29.8343 58.98 49.3386H51.5544V41.913Z" stroke="#7AB4D9" stroke-width="2"/>
<path d="M67.3667 41.9139C79.2315 42.5295 81.9845 38.4331 80.7327 23.35H88.1583C89.833 43.5595 84.8738 48.6956 67.3667 49.0915L67.3667 41.9139Z" stroke="#7AB4D9" stroke-width="2"/>
<path d="M67.1175 41.913C66.8857 30.4918 70.9739 29.0857 80.9785 29.7846V23.3491C60.7063 22.0971 58.1986 29.8343 59.6919 49.3386H67.1175V41.913Z" stroke="#7AB4D9" stroke-width="2"/>
<path d="M109.641 4.52423C97.7758 3.90863 95.0228 8.00507 96.2746 23.0882H88.8491C87.1743 2.87862 92.1335 -2.25746 109.641 -2.65334L109.641 4.52423Z" stroke="#7AB4D9" stroke-width="2"/>
<path d="M109.891 4.52512C110.123 15.9463 106.035 17.3524 96.0303 16.6535V23.089C116.303 24.341 118.81 16.6038 117.317 -2.90045H109.891V4.52512Z" stroke="#7AB4D9" stroke-width="2"/>
<path d="M96.5742 30.6432C108.439 30.0276 111.192 34.124 109.94 49.2071H117.366C119.041 28.9975 114.081 23.8615 96.5742 23.4656L96.5742 30.6432Z" stroke="#7AB4D9" stroke-width="2"/>
<path d="M96.325 30.6446C96.0932 42.0658 100.181 43.4719 110.186 42.7731V49.2086C89.9138 50.4605 87.4061 42.7234 88.8994 23.2191H96.325V30.6446Z" stroke="#7AB4D9" stroke-width="2"/>
<path d="M30.7017 92.1592V76.5655H46.7904C61.4963 80.5787 60.4349 89.2938 60.4039 103.545C40.3752 104.755 34.7264 101.688 30.7017 92.1592Z" fill="#7AB4D9"/>
<path d="M37.6333 89.3096V82.5059H44.3307C50.4525 84.2569 50.0107 88.0594 49.9978 94.2774C41.6602 94.8051 39.3087 93.4673 37.6333 89.3096Z" fill="#0678BE"/>
<path d="M30.7017 60.9747V76.5684H46.7904C61.4963 72.5552 60.4349 63.84 60.4039 49.5888C40.3752 48.3793 34.7264 51.4453 30.7017 60.9747Z" fill="#7AB4D9"/>
<path d="M37.6333 63.8248V70.6285H44.3307C50.4525 68.8775 50.0107 65.075 49.9978 58.857C41.6602 58.3293 39.3087 59.6671 37.6333 63.8248Z" fill="#0678BE"/>
<path d="M30.7305 92.1592V76.5655H14.6417C-0.0641384 80.5787 0.997196 89.2938 1.02819 103.545C21.057 104.755 26.7057 101.688 30.7305 92.1592Z" fill="#7AB4D9"/>
<path d="M23.7998 89.3096V82.5059H17.1024C10.9806 84.2569 11.4224 88.0594 11.4353 94.2774C19.7729 94.8051 22.1244 93.4673 23.7998 89.3096Z" fill="#0678BE"/>
<path d="M30.7305 60.9747V76.5684H14.6417C-0.0641384 72.5552 0.997196 63.84 1.02819 49.5888C21.057 48.3793 26.7057 51.4453 30.7305 60.9747Z" fill="#7AB4D9"/>
<path d="M23.7998 63.8248V70.6285H17.1024C10.9806 68.8775 11.4224 65.075 11.4353 58.857C19.7729 58.3293 22.1244 59.6671 23.7998 63.8248Z" fill="#0678BE"/>
<rect x="30.207" y="60.724" width="0.495038" height="16.8313" fill="#BAE3FD"/>
<rect x="47.0381" y="76.0707" width="0.495038" height="16.8313" transform="rotate(90 47.0381 76.0707)" fill="#BAE3FD"/>
<rect x="30.7017" y="92.4075" width="0.495038" height="16.8313" transform="rotate(180 30.7017 92.4075)" fill="#BAE3FD"/>
<rect x="13.8706" y="76.5655" width="0.495038" height="16.8313" transform="rotate(-90 13.8706 76.5655)" fill="#BAE3FD"/>
<rect x="30.2085" y="75.0805" width="0.495038" height="2.47519" fill="#0678BE"/>
<rect x="29.2178" y="76.5574" width="0.495038" height="2.47519" transform="rotate(-89.6167 29.2178 76.5574)" fill="#0678BE"/>
</svg>
