<svg width="48" height="48" viewBox="0 0 48 48" fill="none" xmlns="http://www.w3.org/2000/svg">
<path d="M26.818 3.18198C28.5754 1.42462 31.4246 1.42462 33.182 3.18198L44.818 14.818C46.5754 16.5754 46.5754 19.4246 44.818 21.182L33.182 32.818C31.4246 34.5754 28.5754 34.5754 26.818 32.818L15.182 21.182C13.4246 19.4246 13.4246 16.5754 15.182 14.818L26.818 3.18198Z" fill="url(#paint0_linear_15282_38614)"/>
<path d="M7.06399 21.9758C5.33296 20.4991 2.66663 21.7292 2.66663 24.0046V39.9908C2.66663 42.2659 5.33233 43.4961 7.06349 42.02L16.376 34.0796C17.6556 32.9885 17.6559 31.0116 16.3765 29.9202L7.06399 21.9758Z" fill="#90ECF4"/>
<path d="M19.064 21.9758C17.333 20.4991 14.6666 21.7292 14.6666 24.0046V39.9908C14.6666 42.2659 17.3323 43.4961 19.0635 42.02L28.376 34.0796C29.6556 32.9885 29.6558 31.0116 28.3765 29.9202L19.064 21.9758Z" fill="#444BD3"/>
<defs>
<linearGradient id="paint0_linear_15282_38614" x1="30" y1="0" x2="30" y2="36" gradientUnits="userSpaceOnUse">
<stop stop-color="#DEDEDE"/>
<stop offset="1" stop-color="#DEDEDE" stop-opacity="0"/>
</linearGradient>
</defs>
</svg>
