<svg width="45" height="42" viewBox="0 0 45 42" fill="none" xmlns="http://www.w3.org/2000/svg">
<path d="M13.043 31.8387L12.8054 26.4928H16.7258V29.7003L29.5561 36.9471V41.1051L13.043 31.8387Z" fill="#0362A1"/>
<path d="M13.1629 9.26656L12.9253 14.6125H16.8457V11.405L29.676 4.15819V0.000214577L13.1629 9.26656Z" fill="#0362A1"/>
<path d="M45.0001 28.1558L29.5562 36.947V41.2238L45.0001 32.3138V28.1558Z" fill="#38B5F8"/>
<path d="M45.0001 13.0682L29.5562 4.27706V0.00028038L45.0001 8.91023V13.0682Z" fill="#38B5F8"/>
<path d="M40.2482 27.7997L36.803 25.6613L28.9622 29.9381L21.5967 25.6613V18.771H15.3003V23.0478H17.9139V28.6313L28.9622 34.4525L40.2482 27.7997Z" fill="#7DCEFC"/>
<path d="M40.2482 14.0187L36.803 16.157L28.9622 11.8803L21.5967 16.157V23.0474H15.3003V18.7706H17.9139V13.1871L28.9622 7.36589L40.2482 14.0187Z" fill="#0362A1"/>
<circle cx="7.93526" cy="16.6322" r="2.13839" fill="#0362A1"/>
<circle cx="2.47042" cy="20.6714" r="2.13839" fill="#7DCEFC"/>
<circle cx="7.93526" cy="24.4732" r="2.13839" fill="#7DCEFC"/>
<rect x="9.3606" y="16.1575" width="9.26635" height="0.950395" fill="#0362A1"/>
<rect x="3.18311" y="20.1961" width="10.4543" height="0.950395" fill="#7DCEFC"/>
<rect x="8.1731" y="23.9978" width="6.89036" height="0.950395" fill="#7DCEFC"/>
</svg>
